<svg xmlns="http://www.w3.org/2000/svg" xmlns:xlink="http://www.w3.org/1999/xlink" width="24" height="30" viewBox="0 0 24 30"><defs><path id="vjxwa" d="M827.611 47.323a.25.25 0 0 1 .245-.306h21.915c.134 0 .244.11.244.257v1.398c0 .147-.11.257-.244.257h-21.426a.51.51 0 0 1-.501-.391c-.086-.343-.16-.873-.233-1.215zm-.745-4.012a.257.257 0 0 1 .256-.281h22.649c.134 0 .244.11.244.257v1.468c0 .134-.11.256-.244.256h-22.502a.253.253 0 0 1-.256-.22c-.062-.415-.11-1.076-.147-1.48zm-.233-4.094c0-.134.123-.244.257-.244h22.88c.135 0 .245.11.245.257v1.537c0 .135-.11.257-.244.257h-22.869a.258.258 0 0 1-.256-.257c-.013-.403-.013-1.134-.013-1.55zm.282-3.768a.494.494 0 0 1 .501-.452h22.355c.134 0 .244.11.244.257v1.467c0 .135-.11.257-.244.257h-22.71a.257.257 0 0 1-.256-.28c.036-.343.06-.919.11-1.249zm.807-4.054a.51.51 0 0 1 .5-.391h21.549c.134 0 .244.11.244.244v1.515c0 .134-.11.256-.244.256h-22.025a.258.258 0 0 1-.257-.305c.074-.354.16-.977.233-1.32zm1.369-4.073a.489.489 0 0 1 .477-.33h20.203c.134 0 .244.11.244.244v1.515c0 .134-.11.256-.244.256h-20.802c-.172 0-.294-.17-.245-.342.122-.355.245-.989.367-1.343zm1.956-4.062a.483.483 0 0 1 .452-.281h18.272c.134 0 .244.11.244.245v1.514c0 .135-.11.245-.244.245h-19.018a.242.242 0 0 1-.22-.355c.16-.367.33-1.014.514-1.368zm2.555-3.991a.53.53 0 0 1 .44-.244h15.729c.134 0 .244.122.244.256v1.515c0 .134-.11.244-.244.244H833.15a.252.252 0 0 1-.22-.379c.22-.379.452-1.026.672-1.392z"/></defs><g><g transform="translate(-826 -19)"><use fill="#fff" xlink:href="#vjxwa"/></g></g></svg>